<mxfile host="app.diagrams.net" agent="Mozilla/5.0 (Macintosh; Intel Mac OS X 10_15_7) AppleWebKit/605.1.15 (KHTML, like Gecko) Version/18.3 Safari/605.1.15" version="28.0.7">
  <diagram name="Page-1" id="LkmD76cvLM23LvANVUsf">
    <mxGraphModel dx="903" dy="645" grid="1" gridSize="10" guides="1" tooltips="1" connect="1" arrows="1" fold="1" page="1" pageScale="1" pageWidth="850" pageHeight="1100" math="0" shadow="0">
      <root>
        <mxCell id="0" />
        <mxCell id="1" parent="0" />
        <mxCell id="MDSsundZujCJ8XekD3Zi-1" value="WKB" style="shape=cylinder3;whiteSpace=wrap;html=1;boundedLbl=1;backgroundOutline=1;size=15;fontSize=16;" parent="1" vertex="1">
          <mxGeometry x="440" y="103.75" width="140" height="70" as="geometry" />
        </mxCell>
        <mxCell id="N0hGglacK67Fl9A8VjQ3-1" value="&lt;span style=&quot;caret-color: rgb(185, 185, 185); font-family: &amp;quot;Liberation Mono&amp;quot;, monospace; font-size: 14px; letter-spacing: 0.33px; white-space: pre; color: rgb(0, 0, 0);&quot;&gt;WKBPoint {&lt;br&gt;    byte    byteOrder;&lt;br&gt;    uint32  wkbType; // 1&lt;br&gt;    Point   point;&lt;br&gt;};&lt;/span&gt;&lt;div&gt;&lt;span style=&quot;caret-color: rgb(185, 185, 185); font-family: &amp;quot;Liberation Mono&amp;quot;, monospace; font-size: 14px; letter-spacing: 0.33px; white-space: pre;&quot;&gt;&lt;span style=&quot;caret-color: rgb(185, 185, 185); letter-spacing: 0.33px; color: rgb(0, 0, 0);&quot;&gt;...&lt;/span&gt;&lt;/span&gt;&lt;/div&gt;" style="text;html=1;align=left;verticalAlign=middle;whiteSpace=wrap;rounded=0;" parent="1" vertex="1">
          <mxGeometry x="210" y="90" width="240" height="117.5" as="geometry" />
        </mxCell>
        <mxCell id="N0hGglacK67Fl9A8VjQ3-2" value="&lt;div&gt;struct BoundingBox&lt;br&gt;&lt;/div&gt;&lt;div&gt;&lt;div&gt;{&lt;/div&gt;&lt;div&gt;&amp;nbsp; &amp;nbsp; double minX, minY, maxX, maxY;&lt;/div&gt;&lt;div&gt;}&lt;/div&gt;&lt;/div&gt;&lt;div&gt;&lt;br&gt;&lt;/div&gt;Runtime Geo Object :&amp;nbsp;StringPieceData&lt;div&gt;&lt;font&gt;{&lt;/font&gt;&lt;/div&gt;&lt;div&gt;&amp;nbsp; &amp;nbsp; &lt;font&gt;&lt;span style=&quot;white-space: pre;&quot;&gt;int64_t mLength;&lt;br&gt;    const char* mPtr;&lt;/span&gt;&lt;/font&gt;&lt;br&gt;&lt;/div&gt;&lt;div&gt;&lt;font&gt;&lt;span style=&quot;white-space: pre;&quot;&gt;    BoundingBox bbox;&lt;/span&gt;&lt;/font&gt;&lt;/div&gt;&lt;div&gt;&lt;span style=&quot;white-space: pre;&quot;&gt;&amp;nbsp;   &lt;/span&gt;&lt;/div&gt;&lt;div&gt;&lt;span style=&quot;white-space: pre;&quot;&gt;    // some predict/math functions:&lt;/span&gt;&lt;/div&gt;&lt;div&gt;&lt;font&gt;}&lt;/font&gt;&lt;/div&gt;&lt;div&gt;&lt;font&gt;&lt;br&gt;&lt;/font&gt;&lt;/div&gt;&lt;div&gt;Runtime Geo Point&lt;/div&gt;&lt;div&gt;{&lt;/div&gt;&lt;div&gt;&amp;nbsp; &amp;nbsp; std::unique_ptr&amp;lt;S2Point&amp;gt; _point;&lt;/div&gt;&lt;div&gt;}&lt;/div&gt;&lt;div&gt;&lt;br&gt;&lt;/div&gt;" style="rounded=1;whiteSpace=wrap;html=1;fontSize=16;spacing=0;verticalAlign=top;align=left;spacingTop=10;spacingLeft=30;" parent="1" vertex="1">
          <mxGeometry x="160" y="230" width="420" height="430" as="geometry" />
        </mxCell>
        <mxCell id="N0hGglacK67Fl9A8VjQ3-4" value="&lt;h1&gt;Storage&lt;/h1&gt;" style="text;html=1;align=center;verticalAlign=middle;resizable=0;points=[];autosize=1;strokeColor=none;fillColor=none;fontStyle=1" parent="1" vertex="1">
          <mxGeometry x="40" y="90" width="110" height="70" as="geometry" />
        </mxCell>
        <mxCell id="N0hGglacK67Fl9A8VjQ3-5" value="&lt;h1&gt;Runtime&lt;/h1&gt;" style="text;html=1;align=center;verticalAlign=middle;resizable=0;points=[];autosize=1;strokeColor=none;fillColor=none;fontStyle=1" parent="1" vertex="1">
          <mxGeometry x="35" y="335" width="120" height="70" as="geometry" />
        </mxCell>
        <mxCell id="ZQK9envjT0dsx5QLNRdX-2" value="&lt;h1&gt;Workflow&lt;/h1&gt;" style="text;html=1;align=center;verticalAlign=middle;resizable=0;points=[];autosize=1;strokeColor=none;fillColor=none;" vertex="1" parent="1">
          <mxGeometry x="660" y="10" width="130" height="70" as="geometry" />
        </mxCell>
        <mxCell id="ZQK9envjT0dsx5QLNRdX-3" value="Scan" style="rounded=0;whiteSpace=wrap;html=1;fontSize=22;fontStyle=0" vertex="1" parent="1">
          <mxGeometry x="665" y="200" width="120" height="60" as="geometry" />
        </mxCell>
      </root>
    </mxGraphModel>
  </diagram>
</mxfile>
